<?xml version="1.0" encoding="UTF-8"?>
<svg width="6px" height="6px" viewBox="0 0 6 6" version="1.1" xmlns="http://www.w3.org/2000/svg" xmlns:xlink="http://www.w3.org/1999/xlink">
    <!-- Generator: Sketch 47.1 (45422) - http://www.bohemiancoding.com/sketch -->
    <title>Combined Shape</title>
    <desc>Created with Sketch.</desc>
    <defs></defs>
    <g id="Index" stroke="none" stroke-width="1" fill="none" fill-rule="evenodd">
        <g id="GrumpyReport_1920" transform="translate(-445.000000, -10176.000000)" fill="#FFC717">
            <g id="Methodology" transform="translate(340.000000, 9670.000000)">
                <g id="Indicators" transform="translate(104.000000, 380.000000)">
                    <g id="Crime-Rates" transform="translate(0.000000, 38.000000)">
                        <g id="Bullets" transform="translate(1.000000, 11.000000)">
                            <path d="M3,83 C1.34314575,83 0,81.6568542 0,80 C0,78.3431458 1.34314575,77 3,77 C4.65685425,77 6,78.3431458 6,80 C6,81.6568542 4.65685425,83 3,83 Z M3,82 C4.1045695,82 5,81.1045695 5,80 C5,78.8954305 4.1045695,78 3,78 C1.8954305,78 1,78.8954305 1,80 C1,81.1045695 1.8954305,82 3,82 Z" id="Combined-Shape"></path>
                        </g>
                    </g>
                </g>
            </g>
        </g>
    </g>
</svg>